<svg id="visual" viewBox="0 0 1280 500" width="1280" height="500" xmlns="http://www.w3.org/2000/svg" xmlns:xlink="http://www.w3.org/1999/xlink" version="1.1"><path d="M0 153L35.5 132.8C71 112.7 142 72.3 213.2 71.5C284.3 70.7 355.7 109.3 426.8 131.5C498 153.7 569 159.3 640 139.5C711 119.7 782 74.3 853.2 63C924.3 51.7 995.7 74.3 1066.8 84.8C1138 95.3 1209 93.7 1244.5 92.8L1280 92L1280 0L1244.5 0C1209 0 1138 0 1066.8 0C995.7 0 924.3 0 853.2 0C782 0 711 0 640 0C569 0 498 0 426.8 0C355.7 0 284.3 0 213.2 0C142 0 71 0 35.5 0L0 0Z" fill="#FFF" stroke-linecap="round" stroke-linejoin="miter"></path></svg>